<?xml version="1.0" encoding="UTF-8"?>
<svg id="Capa_2" data-name="Capa 2" xmlns="http://www.w3.org/2000/svg" viewBox="0 0 542.38 468.87">
  <defs>
    <style>
      .cls-1 {
        stroke-width: 0px;
      }
    </style>
  </defs>
  <g id="Capa_1-2" data-name="Capa 1">
    <g>
      <path class="cls-1" d="m.02,155.85c10.64,0,20.62,0,30.6,0,14.74-.02,29.47.12,44.2-.12,14.88-.24,24.34-15.58,17.35-27.98-3.75-6.65-9.36-10.32-17.39-10.27-23.48.15-46.95.05-70.43.04-1.22,0-2.44-.1-3.6-.16-2.5-19.35,15.81-51.6,49.53-52.41,0-6.31.41-12.67-.1-18.96-.64-7.97,5.92-15.81,15.27-15.8,17.86.01,35.71-.09,53.57.05,9.05.07,14.82,6.33,14.74,15.36-.06,6.35-.01,12.7-.01,19.62,2.9,0,5.47,0,8.03,0,6.74,0,13.49-.12,20.23.08,2.9.09,4.5-.87,5.75-3.53,6.61-13.98,13.74-27.73,20.04-41.85C193.91,6.22,203.93-.11,218.92,0c35.96.26,71.93.18,107.89.05,13.24-.05,22.29,6.09,27.92,17.7,7.03,14.48,14,28.99,20.81,43.56,1.4,2.99,3.04,4.08,6.46,4.06,36.96-.16,73.92-.13,110.89-.09,25.51.03,48.76,22.81,49.46,48.34.03,1.1,0,2.21,0,3.89-1.76,0-3.2,0-4.65,0-23.35,0-46.7-.06-70.05.06-12.26.06-20.66,10.05-18.94,22.15,1.28,9,9.39,16.07,18.8,16.1,23.35.07,46.7.02,70.05.02,1.47,0,2.94,0,4.8,0,0,2.35,0,4.31,0,6.27-.01,83.17.01,166.33-.05,249.5-.02,27.68-18.68,50.85-45.19,56.21-3.4.69-6.94.94-10.41.94-143.86.05-287.71,0-431.57.1-30.52.02-51.83-24.89-54.2-49.66-1.29-13.5-.89-27.18-.91-40.78-.07-72.3-.03-144.6-.03-216.9,0-1.72,0-3.43,0-5.67Zm272.04-46.62c-85.56-.31-158.44,70.85-158.92,154.95-.5,88.25,71.51,157.65,158.08,158.4,86.74.75,158.25-69.87,159.03-155.26.78-84.59-72.38-159.16-158.19-158.09ZM64.59,395.57c-7.31.01-12.95,5.56-12.89,12.66.06,7.06,6.14,12.99,13.27,12.95,6.95-.04,12.56-5.65,12.64-12.61.08-7.3-5.64-13.01-13.02-12.99Zm413.49.02c-6.93.04-12.78,5.85-12.69,12.6.09,6.96,6.09,12.97,12.94,12.97,7.14,0,12.74-5.7,12.72-12.94-.02-7.18-5.65-12.66-12.97-12.62Z"/>
      <path class="cls-1" d="m271.44,381.92c-65.92-.18-118.03-52.18-117.84-117.6.18-62.93,54.43-115.39,119.11-115.17,63.99.21,117.63,53.44,117.47,116.57-.16,64.09-53.59,116.38-118.73,116.2Zm-25.58-174.47c.05-10.09-10.06-16.48-18.2-11.76-5.13,2.98-9.98,6.65-14.39,10.64-13.62,12.3-22.56,27.46-26.05,45.56-1.52,7.91,3.15,14.76,10.09,15.76,7.64,1.1,13.22-4.06,14.88-12.37,1.13-5.64,3.1-11.3,5.76-16.39,4.48-8.56,11.68-14.8,19.74-20.04,4.4-2.87,8.28-6.15,8.17-11.4Z"/>
    </g>
  </g>
</svg>